REM DIRINDEX 1\3,1\2\4,1\2\5,1\2\6
REM DIRNAME folder01,folder02,folder03,folder04,folder05,folder06
TITLE ""
FILE "106.mp3" MP3
  TRACK 01 AUDIO
    TITLE "4:cjc137_4371"
    INDEX 01 00:00:00
  TRACK 02 AUDIO
    TITLE "0:"
    INDEX 01 00:01:42
  TRACK 03 AUDIO
    TITLE "6:cjc137_4372"
    INDEX 01 00:01:48
  TRACK 04 AUDIO
    TITLE "0:"
    INDEX 01 00:02:63
  TRACK 05 AUDIO
    TITLE "5:cjc137_4373"
    INDEX 01 00:02:67
  TRACK 06 AUDIO
    TITLE "0:"
    INDEX 01 00:04:31
  TRACK 07 AUDIO
    TITLE "4:cjc137_4374"
    INDEX 01 00:05:42
  TRACK 08 AUDIO
    TITLE "0:"
    INDEX 01 00:06:61
  TRACK 09 AUDIO
    TITLE "6:cjc137_4375"
    INDEX 01 00:06:67
  TRACK 10 AUDIO
    TITLE "0:"
    INDEX 01 00:08:15
  TRACK 11 AUDIO
    TITLE "5:cjc137_4376"
    INDEX 01 00:08:19
  TRACK 12 AUDIO
    TITLE "0:"
    INDEX 01 00:09:38
  TRACK 13 AUDIO
    TITLE "4:cjc137_4377"
    INDEX 01 00:10:49
  TRACK 14 AUDIO
    TITLE "0:"
    INDEX 01 00:11:60
  TRACK 15 AUDIO
    TITLE "6:cjc137_4378"
    INDEX 01 00:11:66
  TRACK 16 AUDIO
    TITLE "0:"
    INDEX 01 00:13:45
  TRACK 17 AUDIO
    TITLE "5:cjc137_4379"
    INDEX 01 00:13:53
  TRACK 18 AUDIO
    TITLE "0:"
    INDEX 01 00:14:62
  TRACK 19 AUDIO
    TITLE "4:cjc137_4380"
    INDEX 01 00:15:72
  TRACK 20 AUDIO
    TITLE "0:"
    INDEX 01 00:17:02
  TRACK 21 AUDIO
    TITLE "6:cjc137_4381"
    INDEX 01 00:17:12
  TRACK 22 AUDIO
    TITLE "0:"
    INDEX 01 00:17:72
  TRACK 23 AUDIO
    TITLE "5:cjc137_4382"
    INDEX 01 00:18:07
  TRACK 24 AUDIO
    TITLE "0:"
    INDEX 01 00:19:11
  TRACK 25 AUDIO
    TITLE "4:cjc137_4383"
    INDEX 01 00:20:28
  TRACK 26 AUDIO
    TITLE "0:"
    INDEX 01 00:21:37
  TRACK 27 AUDIO
    TITLE "6:cjc137_4384"
    INDEX 01 00:21:47
  TRACK 28 AUDIO
    TITLE "0:"
    INDEX 01 00:22:60
  TRACK 29 AUDIO
    TITLE "5:cjc137_4385"
    INDEX 01 00:22:72
  TRACK 30 AUDIO
    TITLE "0:"
    INDEX 01 00:24:04
  TRACK 31 AUDIO
    TITLE "4:cjc137_4386"
    INDEX 01 00:25:15
  TRACK 32 AUDIO
    TITLE "0:"
    INDEX 01 00:26:26
  TRACK 33 AUDIO
    TITLE "6:cjc137_4387"
    INDEX 01 00:26:34
  TRACK 34 AUDIO
    TITLE "0:"
    INDEX 01 00:27:41
  TRACK 35 AUDIO
    TITLE "5:cjc137_4388"
    INDEX 01 00:27:43
  TRACK 36 AUDIO
    TITLE "0:"
    INDEX 01 00:28:55
  TRACK 37 AUDIO
    TITLE "4:cjc137_4389"
    INDEX 01 00:29:66
  TRACK 38 AUDIO
    TITLE "0:"
    INDEX 01 00:31:00
  TRACK 39 AUDIO
    TITLE "6:cjc137_4390"
    INDEX 01 00:31:10
  TRACK 40 AUDIO
    TITLE "0:"
    INDEX 01 00:32:11
  TRACK 41 AUDIO
    TITLE "5:cjc137_4391"
    INDEX 01 00:32:15
  TRACK 42 AUDIO
    TITLE "0:"
    INDEX 01 00:33:26
  TRACK 43 AUDIO
    TITLE "4:cjc137_4392"
    INDEX 01 00:34:36
  TRACK 44 AUDIO
    TITLE "0:"
    INDEX 01 00:35:31
  TRACK 45 AUDIO
    TITLE "6:cjc137_4393"
    INDEX 01 00:35:41
  TRACK 46 AUDIO
    TITLE "0:"
    INDEX 01 00:36:48
  TRACK 47 AUDIO
    TITLE "5:cjc137_4394"
    INDEX 01 00:36:52
  TRACK 48 AUDIO
    TITLE "0:"
    INDEX 01 00:37:48
  TRACK 49 AUDIO
    TITLE "4:cjc137_4395"
    INDEX 01 00:38:63
  TRACK 50 AUDIO
    TITLE "0:"
    INDEX 01 00:39:66
  TRACK 51 AUDIO
    TITLE "6:cjc137_4396"
    INDEX 01 00:39:74
  TRACK 52 AUDIO
    TITLE "0:"
    INDEX 01 00:40:62
  TRACK 53 AUDIO
    TITLE "5:cjc137_4397"
    INDEX 01 00:40:70
  TRACK 54 AUDIO
    TITLE "0:"
    INDEX 01 00:41:71
  TRACK 55 AUDIO
    TITLE "4:cjc137_4398"
    INDEX 01 00:43:07
  TRACK 56 AUDIO
    TITLE "0:"
    INDEX 01 00:44:34
  TRACK 57 AUDIO
    TITLE "6:cjc137_4399"
    INDEX 01 00:44:38
  TRACK 58 AUDIO
    TITLE "0:"
    INDEX 01 00:45:67
  TRACK 59 AUDIO
    TITLE "5:cjc137_4400"
    INDEX 01 00:45:73
  TRACK 60 AUDIO
    TITLE "0:"
    INDEX 01 00:47:23
  TRACK 61 AUDIO
    TITLE "4:cjc137_4401"
    INDEX 01 00:48:32
  TRACK 62 AUDIO
    TITLE "0:"
    INDEX 01 00:49:31
  TRACK 63 AUDIO
    TITLE "6:cjc137_4402"
    INDEX 01 00:49:37
  TRACK 64 AUDIO
    TITLE "0:"
    INDEX 01 00:50:29
  TRACK 65 AUDIO
    TITLE "5:cjc137_4403"
    INDEX 01 00:50:33
  TRACK 66 AUDIO
    TITLE "0:"
    INDEX 01 00:51:34
  TRACK 67 AUDIO
    TITLE "4:cjc137_4404"
    INDEX 01 00:52:39
  TRACK 68 AUDIO
    TITLE "0:"
    INDEX 01 00:53:39
  TRACK 69 AUDIO
    TITLE "6:cjc137_4405"
    INDEX 01 00:53:47
  TRACK 70 AUDIO
    TITLE "0:"
    INDEX 01 00:54:34
  TRACK 71 AUDIO
    TITLE "5:cjc137_4406"
    INDEX 01 00:54:38
  TRACK 72 AUDIO
    TITLE "0:"
    INDEX 01 00:55:38
  TRACK 73 AUDIO
    TITLE "4:cjc137_4407"
    INDEX 01 00:56:45
  TRACK 74 AUDIO
    TITLE "0:"
    INDEX 01 00:57:45
  TRACK 75 AUDIO
    TITLE "6:cjc137_4408"
    INDEX 01 00:57:50
  TRACK 76 AUDIO
    TITLE "0:"
    INDEX 01 00:59:12
  TRACK 77 AUDIO
    TITLE "5:cjc137_4409"
    INDEX 01 00:59:18
  TRACK 78 AUDIO
    TITLE "0:"
    INDEX 01 01:00:17
  TRACK 79 AUDIO
    TITLE "4:cjc137_4410"
    INDEX 01 01:01:25
  TRACK 80 AUDIO
    TITLE "0:"
    INDEX 01 01:02:26
  TRACK 81 AUDIO
    TITLE "6:cjc137_4411"
    INDEX 01 01:02:34
  TRACK 82 AUDIO
    TITLE "0:"
    INDEX 01 01:03:22
  TRACK 83 AUDIO
    TITLE "5:cjc137_4412"
    INDEX 01 01:03:29
  TRACK 84 AUDIO
    TITLE "0:"
    INDEX 01 01:04:29
